<svg width="1204.68740234375px" height="155.61754150390624px" xmlns="http://www.w3.org/2000/svg" viewBox="-352.34370117187495 -2.8087707519531193 1204.68740234375 155.61754150390624" style="background: none;" preserveAspectRatio="xMidYMid"><defs><filter id="editing-hover" x="-100%" y="-100%" width="300%" height="300%"><feFlood flood-color="#6b767f" result="flood"></feFlood><feComposite operator="in" in2="SourceAlpha" in="flood" result="shadow"></feComposite><feOffset dx="3.5" dy="-0.6" in="SourceGraphic" result="offset-1"></feOffset><feOffset dx="-3.5" dy="0.6" in="shadow" result="offset-2"></feOffset><feMerge><feMergeNode in="offset-2"></feMergeNode><feMergeNode in="offset-1"></feMergeNode></feMerge></filter></defs><g filter="url(#editing-hover)"><g transform="translate(-187.92501211166382, 107.63000106811523)"><path d="M9.42 0L9.42 0Q8.03 0 7.19-0.80L7.19-0.80L7.19-0.80Q6.35-1.61 6.35-2.92L6.35-2.92L6.35-48.54L6.35-48.54Q6.35-49.86 7.19-50.66L7.19-50.66L7.19-50.66Q8.03-51.46 9.42-51.46L9.42-51.46L23.65-51.46L23.65-51.46Q35.99-51.46 42.74-44.79L42.74-44.79L42.74-44.79Q49.49-38.11 49.49-25.77L49.49-25.77L49.49-25.77Q49.49-13.43 42.70-6.72L42.70-6.72L42.70-6.72Q35.92 0 23.65 0L23.65 0L9.42 0ZM12.34-5.11L23.29-5.11L23.29-5.11Q43.29-5.11 43.29-25.77L43.29-25.77L43.29-25.77Q43.29-46.35 23.29-46.35L23.29-46.35L12.34-46.35L12.34-5.11ZM62.41 0.36L62.41 0.36Q61.10 0.36 60.26-0.40L60.26-0.40L60.26-0.40Q59.42-1.17 59.42-2.55L59.42-2.55L59.42-33.36L59.42-33.36Q59.42-34.75 60.26-35.51L60.26-35.51L60.26-35.51Q61.10-36.28 62.41-36.28L62.41-36.28L62.41-36.28Q63.73-36.28 64.53-35.51L64.53-35.51L64.53-35.51Q65.33-34.75 65.33-33.36L65.33-33.36L65.33-2.55L65.33-2.55Q65.33-1.09 64.53-0.36L64.53-0.36L64.53-0.36Q63.73 0.36 62.41 0.36L62.41 0.36ZM62.41-43.95L62.41-43.95Q60.66-43.95 59.57-44.97L59.57-44.97L59.57-44.97Q58.47-45.99 58.47-47.67L58.47-47.67L58.47-47.67Q58.47-49.27 59.57-50.30L59.57-50.30L59.57-50.30Q60.66-51.32 62.41-51.32L62.41-51.32L62.41-51.32Q64.17-51.32 65.26-50.30L65.26-50.30L65.26-50.30Q66.36-49.27 66.36-47.67L66.36-47.67L66.36-47.67Q66.36-45.99 65.26-44.97L65.26-44.97L65.26-44.97Q64.17-43.95 62.41-43.95L62.41-43.95ZM88.33 0.51L88.33 0.51Q84.97 0.51 81.94-0.29L81.94-0.29L81.94-0.29Q78.91-1.09 76.58-2.55L76.58-2.55L76.58-2.55Q75.26-3.43 74.72-4.20L74.72-4.20L74.72-4.20Q74.17-4.96 74.17-6.06L74.17-6.06L74.17-6.06Q74.17-7.01 74.72-7.63L74.72-7.63L74.72-7.63Q75.26-8.25 76.14-8.25L76.14-8.25L76.14-8.25Q77.02-8.25 78.69-7.15L78.69-7.15L78.69-7.15Q80.88-5.84 83.04-5.07L83.04-5.07L83.04-5.07Q85.19-4.31 88.40-4.31L88.40-4.31L88.40-4.31Q92.34-4.31 94.53-5.69L94.53-5.69L94.53-5.69Q96.72-7.08 96.72-9.71L96.72-9.71L96.72-9.71Q96.72-11.31 95.92-12.30L95.92-12.30L95.92-12.30Q95.12-13.29 93.15-14.05L93.15-14.05L93.15-14.05Q91.18-14.82 87.38-15.62L87.38-15.62L87.38-15.62Q80.96-17.01 78.18-19.34L78.18-19.34L78.18-19.34Q75.41-21.68 75.41-25.70L75.41-25.70L75.41-25.70Q75.41-28.83 77.16-31.24L77.16-31.24L77.16-31.24Q78.91-33.65 82.02-35.04L82.02-35.04L82.02-35.04Q85.12-36.43 89.06-36.43L89.06-36.43L89.06-36.43Q91.91-36.43 94.57-35.66L94.57-35.66L94.57-35.66Q97.24-34.89 99.28-33.51L99.28-33.51L99.28-33.51Q101.76-31.75 101.76-29.86L101.76-29.86L101.76-29.86Q101.76-28.91 101.18-28.25L101.18-28.25L101.18-28.25Q100.59-27.59 99.79-27.59L99.79-27.59L99.79-27.59Q98.91-27.59 97.16-28.83L97.16-28.83L97.16-28.83Q95.12-30.15 93.29-30.88L93.29-30.88L93.29-30.88Q91.47-31.61 88.77-31.61L88.77-31.61L88.77-31.61Q85.34-31.61 83.26-30.08L83.26-30.08L83.26-30.08Q81.18-28.54 81.18-25.99L81.18-25.99L81.18-25.99Q81.18-24.38 81.94-23.40L81.94-23.40L81.94-23.40Q82.71-22.41 84.50-21.64L84.50-21.64L84.50-21.64Q86.29-20.88 89.64-20.15L89.64-20.15L89.64-20.15Q94.61-19.05 97.35-17.74L97.35-17.74L97.35-17.74Q100.08-16.43 101.25-14.53L101.25-14.53L101.25-14.53Q102.42-12.63 102.42-9.71L102.42-9.71L102.42-9.71Q102.42-5.11 98.55-2.30L98.55-2.30L98.55-2.30Q94.68 0.51 88.33 0.51L88.33 0.51ZM126.07 0.51L126.07 0.51Q121.11 0.51 117.27-1.75L117.27-1.75L117.27-1.75Q113.44-4.01 111.36-8.18L111.36-8.18L111.36-8.18Q109.28-12.34 109.28-17.81L109.28-17.81L109.28-17.81Q109.28-23.29 111.43-27.52L111.43-27.52L111.43-27.52Q113.59-31.75 117.46-34.09L117.46-34.09L117.46-34.09Q121.33-36.43 126.36-36.43L126.36-36.43L126.36-36.43Q129.14-36.43 131.87-35.66L131.87-35.66L131.87-35.66Q134.61-34.89 136.66-33.43L136.66-33.43L136.66-33.43Q137.97-32.56 138.52-31.72L138.52-31.72L138.52-31.72Q139.06-30.88 139.06-29.86L139.06-29.86L139.06-29.86Q139.06-28.83 138.52-28.18L138.52-28.18L138.52-28.18Q137.97-27.52 137.09-27.52L137.09-27.52L137.09-27.52Q136.58-27.52 136.00-27.81L136.00-27.81L136.00-27.81Q135.41-28.10 135.01-28.40L135.01-28.40L135.01-28.40Q134.61-28.69 134.47-28.76L134.47-28.76L134.47-28.76Q132.57-30.00 130.85-30.73L130.85-30.73L130.85-30.73Q129.14-31.46 126.66-31.46L126.66-31.46L126.66-31.46Q121.33-31.46 118.37-27.85L118.37-27.85L118.37-27.85Q115.41-24.24 115.41-17.81L115.41-17.81L115.41-17.81Q115.41-11.39 118.37-7.88L118.37-7.88L118.37-7.88Q121.33-4.38 126.66-4.38L126.66-4.38L126.66-4.38Q129.14-4.38 130.93-5.11L130.93-5.11L130.93-5.11Q132.71-5.84 134.54-7.08L134.54-7.08L134.54-7.08Q135.34-7.59 136.07-7.96L136.07-7.96L136.07-7.96Q136.80-8.32 137.31-8.32L137.31-8.32L137.31-8.32Q138.12-8.32 138.66-7.66L138.66-7.66L138.66-7.66Q139.21-7.01 139.21-5.99L139.21-5.99L139.21-5.99Q139.21-5.04 138.70-4.27L138.70-4.27L138.70-4.27Q138.19-3.50 136.80-2.55L136.80-2.55L136.80-2.55Q134.76-1.17 131.87-0.33L131.87-0.33L131.87-0.33Q128.99 0.51 126.07 0.51L126.07 0.51ZM161.11 0.51L161.11 0.51Q156.07 0.51 152.24-1.75L152.24-1.75L152.24-1.75Q148.41-4.01 146.33-8.21L146.33-8.21L146.33-8.21Q144.25-12.41 144.25-17.96L144.25-17.96L144.25-17.96Q144.25-23.51 146.33-27.70L146.33-27.70L146.33-27.70Q148.41-31.90 152.24-34.16L152.24-34.16L152.24-34.16Q156.07-36.43 161.11-36.43L161.11-36.43L161.11-36.43Q166.15-36.43 170.02-34.16L170.02-34.16L170.02-34.16Q173.89-31.90 175.97-27.70L175.97-27.70L175.97-27.70Q178.05-23.51 178.05-17.96L178.05-17.96L178.05-17.96Q178.05-12.41 175.97-8.21L175.97-8.21L175.97-8.21Q173.89-4.01 170.02-1.75L170.02-1.75L170.02-1.75Q166.15 0.51 161.11 0.51L161.11 0.51ZM161.11-4.38L161.11-4.38Q166.37-4.38 169.18-7.85L169.18-7.85L169.18-7.85Q171.99-11.31 171.99-17.96L171.99-17.96L171.99-17.96Q171.99-24.45 169.14-28.00L169.14-28.00L169.14-28.00Q166.29-31.54 161.11-31.54L161.11-31.54L161.11-31.54Q155.93-31.54 153.08-28.00L153.08-28.00L153.08-28.00Q150.23-24.45 150.23-17.96L150.23-17.96L150.23-17.96Q150.23-11.39 153.04-7.88L153.04-7.88L153.04-7.88Q155.85-4.38 161.11-4.38L161.11-4.38ZM212.50-34.46L212.50-34.46Q213.31-36.21 215.06-36.21L215.06-36.21L215.06-36.21Q216.15-36.21 217.03-35.48L217.03-35.48L217.03-35.48Q217.90-34.75 217.90-33.65L217.90-33.65L217.90-33.65Q217.90-33.00 217.61-32.48L217.61-32.48L203.38-1.82L203.38-1.82Q202.94-0.88 202.06-0.33L202.06-0.33L202.06-0.33Q201.19 0.22 200.17 0.22L200.17 0.22L200.17 0.22Q199.22 0.22 198.34-0.33L198.34-0.33L198.34-0.33Q197.46-0.88 196.95-1.82L196.95-1.82L182.79-32.48L182.79-32.48Q182.50-33.00 182.50-33.58L182.50-33.58L182.50-33.58Q182.50-34.67 183.49-35.48L183.49-35.48L183.49-35.48Q184.47-36.28 185.64-36.28L185.64-36.28L185.64-36.28Q186.37-36.28 187.06-35.84L187.06-35.84L187.06-35.84Q187.76-35.41 188.12-34.60L188.12-34.60L200.31-7.23L212.50-34.46ZM251.92-8.25L251.92-8.25Q252.73-8.25 253.31-7.59L253.31-7.59L253.31-7.59Q253.89-6.93 253.89-5.91L253.89-5.91L253.89-5.91Q253.89-4.09 251.34-2.55L251.34-2.55L251.34-2.55Q248.71-1.02 245.79-0.26L245.79-0.26L245.79-0.26Q242.87 0.51 240.10 0.51L240.10 0.51L240.10 0.51Q231.85 0.51 227.07-4.38L227.07-4.38L227.07-4.38Q222.28-9.27 222.28-17.88L222.28-17.88L222.28-17.88Q222.28-23.36 224.40-27.56L224.40-27.56L224.40-27.56Q226.52-31.75 230.35-34.09L230.35-34.09L230.35-34.09Q234.18-36.43 239.07-36.43L239.07-36.43L239.07-36.43Q246.01-36.43 250.10-31.90L250.10-31.90L250.10-31.90Q254.19-27.38 254.19-19.64L254.19-19.64L254.19-19.64Q254.19-18.18 253.60-17.52L253.60-17.52L253.60-17.52Q253.02-16.86 251.70-16.86L251.70-16.86L228.20-16.86L228.20-16.86Q228.85-4.31 240.10-4.31L240.10-4.31L240.10-4.31Q242.94-4.31 244.99-5.07L244.99-5.07L244.99-5.07Q247.03-5.84 249.37-7.15L249.37-7.15L249.37-7.15Q251.27-8.25 251.92-8.25L251.92-8.25ZM239.15-31.83L239.15-31.83Q234.48-31.83 231.67-28.91L231.67-28.91L231.67-28.91Q228.85-25.99 228.34-20.66L228.34-20.66L249.00-20.66L249.00-20.66Q248.86-26.06 246.30-28.94L246.30-28.94L246.30-28.94Q243.75-31.83 239.15-31.83L239.15-31.83ZM280.47-36.28L280.47-36.28Q283.53-36.50 283.53-33.80L283.53-33.80L283.53-33.80Q283.53-32.63 282.87-31.94L282.87-31.94L282.87-31.94Q282.22-31.24 280.61-31.10L280.61-31.10L278.42-30.88L278.42-30.88Q273.53-30.44 271.16-27.41L271.16-27.41L271.16-27.41Q268.79-24.38 268.79-20.29L268.79-20.29L268.79-2.55L268.79-2.55Q268.79-1.09 267.98-0.36L267.98-0.36L267.98-0.36Q267.18 0.36 265.87 0.36L265.87 0.36L265.87 0.36Q264.55 0.36 263.71-0.40L263.71-0.40L263.71-0.40Q262.87-1.17 262.87-2.55L262.87-2.55L262.87-33.36L262.87-33.36Q262.87-34.75 263.75-35.51L263.75-35.51L263.75-35.51Q264.62-36.28 265.87-36.28L265.87-36.28L265.87-36.28Q267.03-36.28 267.84-35.51L267.84-35.51L267.84-35.51Q268.64-34.75 268.64-33.43L268.64-33.43L268.64-29.35L268.64-29.35Q270.17-32.56 272.98-34.24L272.98-34.24L272.98-34.24Q275.79-35.92 279.44-36.21L279.44-36.21L280.47-36.28ZM333.10-34.46L333.10-34.46Q333.90-36.21 335.65-36.21L335.65-36.21L335.65-36.21Q336.75-36.21 337.63-35.48L337.63-35.48L337.63-35.48Q338.50-34.75 338.50-33.65L338.50-33.65L338.50-33.65Q338.50-33.00 338.21-32.48L338.21-32.48L317.70 11.75L317.70 11.75Q317.33 12.56 316.64 12.99L316.64 12.99L316.64 12.99Q315.94 13.43 315.21 13.43L315.21 13.43L315.21 13.43Q314.12 13.43 313.28 12.74L313.28 12.74L313.28 12.74Q312.44 12.04 312.44 10.95L312.44 10.95L312.44 10.95Q312.44 10.37 312.73 9.78L312.73 9.78L317.84-1.24L303.39-32.48L303.39-32.48Q303.10-33.00 303.10-33.58L303.10-33.58L303.10-33.58Q303.10-34.67 304.08-35.48L304.08-35.48L304.08-35.48Q305.07-36.28 306.23-36.28L306.23-36.28L306.23-36.28Q306.96-36.28 307.66-35.84L307.66-35.84L307.66-35.84Q308.35-35.41 308.72-34.60L308.72-34.60L320.91-7.23L333.10-34.46ZM359.74 0.51L359.74 0.51Q354.71 0.51 350.87-1.75L350.87-1.75L350.87-1.75Q347.04-4.01 344.96-8.21L344.96-8.21L344.96-8.21Q342.88-12.41 342.88-17.96L342.88-17.96L342.88-17.96Q342.88-23.51 344.96-27.70L344.96-27.70L344.96-27.70Q347.04-31.90 350.87-34.16L350.87-34.16L350.87-34.16Q354.71-36.43 359.74-36.43L359.74-36.43L359.74-36.43Q364.78-36.43 368.65-34.16L368.65-34.16L368.65-34.16Q372.52-31.90 374.60-27.70L374.60-27.70L374.60-27.70Q376.68-23.51 376.68-17.96L376.68-17.96L376.68-17.96Q376.68-12.41 374.60-8.21L374.60-8.21L374.60-8.21Q372.52-4.01 368.65-1.75L368.65-1.75L368.65-1.75Q364.78 0.51 359.74 0.51L359.74 0.51ZM359.74-4.38L359.74-4.38Q365.00-4.38 367.81-7.85L367.81-7.85L367.81-7.85Q370.62-11.31 370.62-17.96L370.62-17.96L370.62-17.96Q370.62-24.45 367.77-28.00L367.77-28.00L367.77-28.00Q364.93-31.54 359.74-31.54L359.74-31.54L359.74-31.54Q354.56-31.54 351.71-28.00L351.71-28.00L351.71-28.00Q348.87-24.45 348.87-17.96L348.87-17.96L348.87-17.96Q348.87-11.39 351.68-7.88L351.68-7.88L351.68-7.88Q354.49-4.38 359.74-4.38L359.74-4.38ZM412.52-36.28L412.52-36.28Q413.91-36.28 414.68-35.48L414.68-35.48L414.68-35.48Q415.44-34.67 415.44-33.36L415.44-33.36L415.44-2.48L415.44-2.48Q415.44-1.24 414.68-0.44L414.68-0.44L414.68-0.44Q413.91 0.36 412.52 0.36L412.52 0.36L412.52 0.36Q411.21 0.36 410.44-0.40L410.44-0.40L410.44-0.40Q409.68-1.17 409.68-2.41L409.68-2.41L409.68-6.06L409.68-6.06Q408.00-2.85 404.97-1.17L404.97-1.17L404.97-1.17Q401.94 0.51 398.14 0.51L398.14 0.51L398.14 0.51Q391.79 0.51 388.58-3.03L388.58-3.03L388.58-3.03Q385.37-6.57 385.37-13.50L385.37-13.50L385.37-33.36L385.37-33.36Q385.37-34.67 386.17-35.48L386.17-35.48L386.17-35.48Q386.97-36.28 388.36-36.28L388.36-36.28L388.36-36.28Q389.75-36.28 390.51-35.48L390.51-35.48L390.51-35.48Q391.28-34.67 391.28-33.36L391.28-33.36L391.28-13.65L391.28-13.65Q391.28-8.91 393.18-6.68L393.18-6.68L393.18-6.68Q395.08-4.45 399.16-4.45L399.16-4.45L399.16-4.45Q403.84-4.45 406.68-7.48L406.68-7.48L406.68-7.48Q409.53-10.51 409.53-15.48L409.53-15.48L409.53-33.36L409.53-33.36Q409.53-34.67 410.33-35.48L410.33-35.48L410.33-35.48Q411.14-36.28 412.52-36.28L412.52-36.28ZM444.06-36.28L444.06-36.28Q447.12-36.50 447.12-33.80L447.12-33.80L447.12-33.80Q447.12-32.63 446.47-31.94L446.47-31.94L446.47-31.94Q445.81-31.24 444.20-31.10L444.20-31.10L442.01-30.88L442.01-30.88Q437.12-30.44 434.75-27.41L434.75-27.41L434.75-27.41Q432.38-24.38 432.38-20.29L432.38-20.29L432.38-2.55L432.38-2.55Q432.38-1.09 431.58-0.36L431.58-0.36L431.58-0.36Q430.77 0.36 429.46 0.36L429.46 0.36L429.46 0.36Q428.14 0.36 427.31-0.40L427.31-0.40L427.31-0.40Q426.47-1.17 426.47-2.55L426.47-2.55L426.47-33.36L426.47-33.36Q426.47-34.75 427.34-35.51L427.34-35.51L427.34-35.51Q428.22-36.28 429.46-36.28L429.46-36.28L429.46-36.28Q430.63-36.28 431.43-35.51L431.43-35.51L431.43-35.51Q432.23-34.75 432.23-33.43L432.23-33.43L432.23-29.35L432.23-29.35Q433.77-32.56 436.58-34.24L436.58-34.24L436.58-34.24Q439.39-35.92 443.04-36.21L443.04-36.21L444.06-36.28ZM485.74 0.51L485.74 0.51Q480.78 0.51 476.95-1.75L476.95-1.75L476.95-1.75Q473.11-4.01 471.03-8.18L471.03-8.18L471.03-8.18Q468.95-12.34 468.95-17.81L468.95-17.81L468.95-17.81Q468.95-23.29 471.11-27.52L471.11-27.52L471.11-27.52Q473.26-31.75 477.13-34.09L477.13-34.09L477.13-34.09Q481.00-36.43 486.03-36.43L486.03-36.43L486.03-36.43Q488.81-36.43 491.55-35.66L491.55-35.66L491.55-35.66Q494.28-34.89 496.33-33.43L496.33-33.43L496.33-33.43Q497.64-32.56 498.19-31.72L498.19-31.72L498.19-31.72Q498.74-30.88 498.74-29.86L498.74-29.86L498.74-29.86Q498.74-28.83 498.19-28.18L498.19-28.18L498.19-28.18Q497.64-27.52 496.76-27.52L496.76-27.52L496.76-27.52Q496.25-27.52 495.67-27.81L495.67-27.81L495.67-27.81Q495.09-28.10 494.68-28.40L494.68-28.40L494.68-28.40Q494.28-28.69 494.14-28.76L494.14-28.76L494.14-28.76Q492.24-30.00 490.52-30.73L490.52-30.73L490.52-30.73Q488.81-31.46 486.33-31.46L486.33-31.46L486.33-31.46Q481.00-31.46 478.04-27.85L478.04-27.85L478.04-27.85Q475.08-24.24 475.08-17.81L475.08-17.81L475.08-17.81Q475.08-11.39 478.04-7.88L478.04-7.88L478.04-7.88Q481.00-4.38 486.33-4.38L486.33-4.38L486.33-4.38Q488.81-4.38 490.60-5.11L490.60-5.11L490.60-5.11Q492.38-5.84 494.21-7.08L494.21-7.08L494.21-7.08Q495.01-7.59 495.74-7.96L495.74-7.96L495.74-7.96Q496.47-8.32 496.98-8.32L496.98-8.32L496.98-8.32Q497.79-8.32 498.33-7.66L498.33-7.66L498.33-7.66Q498.88-7.01 498.88-5.99L498.88-5.99L498.88-5.99Q498.88-5.04 498.37-4.27L498.37-4.27L498.37-4.27Q497.86-3.50 496.47-2.55L496.47-2.55L496.47-2.55Q494.43-1.17 491.55-0.33L491.55-0.33L491.55-0.33Q488.66 0.51 485.74 0.51L485.74 0.51ZM509.03 0.36L509.03 0.36Q507.71 0.36 506.88-0.40L506.88-0.40L506.88-0.40Q506.04-1.17 506.04-2.55L506.04-2.55L506.04-33.36L506.04-33.36Q506.04-34.75 506.88-35.51L506.88-35.51L506.88-35.51Q507.71-36.28 509.03-36.28L509.03-36.28L509.03-36.28Q510.34-36.28 511.15-35.51L511.15-35.51L511.15-35.51Q511.95-34.75 511.95-33.36L511.95-33.36L511.95-2.55L511.95-2.55Q511.95-1.09 511.15-0.36L511.15-0.36L511.15-0.36Q510.34 0.36 509.03 0.36L509.03 0.36ZM509.03-43.95L509.03-43.95Q507.28-43.95 506.18-44.97L506.18-44.97L506.18-44.97Q505.09-45.99 505.09-47.67L505.09-47.67L505.09-47.67Q505.09-49.27 506.18-50.30L506.18-50.30L506.18-50.30Q507.28-51.32 509.03-51.32L509.03-51.32L509.03-51.32Q510.78-51.32 511.88-50.30L511.88-50.30L511.88-50.30Q512.97-49.27 512.97-47.67L512.97-47.67L512.97-47.67Q512.97-45.99 511.88-44.97L511.88-44.97L511.88-44.97Q510.78-43.95 509.03-43.95L509.03-43.95ZM539.40-4.31L539.40-4.31Q541.95-4.09 541.95-1.97L541.95-1.97L541.95-1.97Q541.95-0.73 541.04-0.11L541.04-0.11L541.04-0.11Q540.13 0.51 538.30 0.36L538.30 0.36L536.33 0.22L536.33 0.22Q530.49-0.22 527.72-3.28L527.72-3.28L527.72-3.28Q524.94-6.35 524.94-12.56L524.94-12.56L524.94-30.88L520.05-30.88L520.05-30.88Q518.81-30.88 518.12-31.50L518.12-31.50L518.12-31.50Q517.42-32.12 517.42-33.14L517.42-33.14L517.42-33.14Q517.42-34.24 518.12-34.89L518.12-34.89L518.12-34.89Q518.81-35.55 520.05-35.55L520.05-35.55L524.94-35.55L524.94-43.80L524.94-43.80Q524.94-45.19 525.75-45.95L525.75-45.95L525.75-45.95Q526.55-46.72 527.94-46.72L527.94-46.72L527.94-46.72Q529.25-46.72 530.05-45.95L530.05-45.95L530.05-45.95Q530.86-45.19 530.86-43.80L530.86-43.80L530.86-35.55L538.96-35.55L538.96-35.55Q540.13-35.55 540.82-34.89L540.82-34.89L540.82-34.89Q541.51-34.24 541.51-33.14L541.51-33.14L541.51-33.14Q541.51-32.12 540.82-31.50L540.82-31.50L540.82-31.50Q540.13-30.88 538.96-30.88L538.96-30.88L530.86-30.88L530.86-12.26L530.86-12.26Q530.86-8.25 532.50-6.46L532.50-6.46L532.50-6.46Q534.14-4.67 537.43-4.45L537.43-4.45L539.40-4.31ZM573.41-34.46L573.41-34.46Q574.22-36.21 575.97-36.21L575.97-36.21L575.97-36.21Q577.07-36.21 577.94-35.48L577.94-35.48L577.94-35.48Q578.82-34.75 578.82-33.65L578.82-33.65L578.82-33.65Q578.82-33.00 578.52-32.48L578.52-32.48L558.01 11.75L558.01 11.75Q557.65 12.56 556.95 12.99L556.95 12.99L556.95 12.99Q556.26 13.43 555.53 13.43L555.53 13.43L555.53 13.43Q554.44 13.43 553.60 12.74L553.60 12.74L553.60 12.74Q552.76 12.04 552.76 10.95L552.76 10.95L552.76 10.95Q552.76 10.37 553.05 9.78L553.05 9.78L558.16-1.24L543.70-32.48L543.70-32.48Q543.41-33.00 543.41-33.58L543.41-33.58L543.41-33.58Q543.41-34.67 544.40-35.48L544.40-35.48L544.40-35.48Q545.38-36.28 546.55-36.28L546.55-36.28L546.55-36.28Q547.28-36.28 547.97-35.84L547.97-35.84L547.97-35.84Q548.67-35.41 549.03-34.60L549.03-34.60L561.22-7.23L573.41-34.46ZM587.94-30.88L587.94-30.88Q587.14-30.88 586.63-31.39L586.63-31.39L586.63-31.39Q586.12-31.90 585.97-32.85L585.97-32.85L584.66-47.74L584.58-48.47L584.58-48.47Q584.58-50.08 585.53-50.95L585.53-50.95L585.53-50.95Q586.48-51.83 587.94-51.83L587.94-51.83L587.94-51.83Q589.40-51.83 590.31-50.95L590.31-50.95L590.31-50.95Q591.23-50.08 591.23-48.54L591.23-48.54L591.23-48.54Q591.23-48.03 591.15-47.74L591.15-47.74L589.91-32.85L589.91-32.85Q589.69-30.88 587.94-30.88L587.94-30.88ZM613.42 0.51L613.42 0.51Q610.06 0.51 607.03-0.29L607.03-0.29L607.03-0.29Q604.00-1.09 601.67-2.55L601.67-2.55L601.67-2.55Q600.35-3.43 599.80-4.20L599.80-4.20L599.80-4.20Q599.26-4.96 599.26-6.06L599.26-6.06L599.26-6.06Q599.26-7.01 599.80-7.63L599.80-7.63L599.80-7.63Q600.35-8.25 601.23-8.25L601.23-8.25L601.23-8.25Q602.10-8.25 603.78-7.15L603.78-7.15L603.78-7.15Q605.97-5.84 608.13-5.07L608.13-5.07L608.13-5.07Q610.28-4.31 613.49-4.31L613.49-4.31L613.49-4.31Q617.43-4.31 619.62-5.69L619.62-5.69L619.62-5.69Q621.81-7.08 621.81-9.71L621.81-9.71L621.81-9.71Q621.81-11.31 621.01-12.30L621.01-12.30L621.01-12.30Q620.21-13.29 618.24-14.05L618.24-14.05L618.24-14.05Q616.27-14.82 612.47-15.62L612.47-15.62L612.47-15.62Q606.05-17.01 603.27-19.34L603.27-19.34L603.27-19.34Q600.50-21.68 600.50-25.70L600.50-25.70L600.50-25.70Q600.50-28.83 602.25-31.24L602.25-31.24L602.25-31.24Q604.00-33.65 607.10-35.04L607.10-35.04L607.10-35.04Q610.21-36.43 614.15-36.43L614.15-36.43L614.15-36.43Q617.00-36.43 619.66-35.66L619.66-35.66L619.66-35.66Q622.33-34.89 624.37-33.51L624.37-33.51L624.37-33.51Q626.85-31.75 626.85-29.86L626.85-29.86L626.85-29.86Q626.85-28.91 626.27-28.25L626.27-28.25L626.27-28.25Q625.68-27.59 624.88-27.59L624.88-27.59L624.88-27.59Q624.00-27.59 622.25-28.83L622.25-28.83L622.25-28.83Q620.21-30.15 618.38-30.88L618.38-30.88L618.38-30.88Q616.56-31.61 613.86-31.61L613.86-31.61L613.86-31.61Q610.43-31.61 608.35-30.08L608.35-30.08L608.35-30.08Q606.27-28.54 606.27-25.99L606.27-25.99L606.27-25.99Q606.27-24.38 607.03-23.40L607.03-23.40L607.03-23.40Q607.80-22.41 609.59-21.64L609.59-21.64L609.59-21.64Q611.38-20.88 614.73-20.15L614.73-20.15L614.73-20.15Q619.70-19.05 622.43-17.74L622.43-17.74L622.43-17.74Q625.17-16.43 626.34-14.53L626.34-14.53L626.34-14.53Q627.51-12.63 627.51-9.71L627.51-9.71L627.51-9.71Q627.51-5.11 623.64-2.30L623.64-2.30L623.64-2.30Q619.77 0.51 613.42 0.51L613.42 0.51ZM669.99 0.51L669.99 0.51Q665.03 0.51 661.20-1.75L661.20-1.75L661.20-1.75Q657.37-4.01 655.28-8.18L655.28-8.18L655.28-8.18Q653.20-12.34 653.20-17.81L653.20-17.81L653.20-17.81Q653.20-23.29 655.36-27.52L655.36-27.52L655.36-27.52Q657.51-31.75 661.38-34.09L661.38-34.09L661.38-34.09Q665.25-36.43 670.29-36.43L670.29-36.43L670.29-36.43Q673.06-36.43 675.80-35.66L675.80-35.66L675.80-35.66Q678.53-34.89 680.58-33.43L680.58-33.43L680.58-33.43Q681.89-32.56 682.44-31.72L682.44-31.72L682.44-31.72Q682.99-30.88 682.99-29.86L682.99-29.86L682.99-29.86Q682.99-28.83 682.44-28.18L682.44-28.18L682.44-28.18Q681.89-27.52 681.02-27.52L681.02-27.52L681.02-27.52Q680.51-27.52 679.92-27.81L679.92-27.81L679.92-27.81Q679.34-28.10 678.94-28.40L678.94-28.40L678.94-28.40Q678.53-28.69 678.39-28.76L678.39-28.76L678.39-28.76Q676.49-30.00 674.78-30.73L674.78-30.73L674.78-30.73Q673.06-31.46 670.58-31.46L670.58-31.46L670.58-31.46Q665.25-31.46 662.29-27.85L662.29-27.85L662.29-27.85Q659.34-24.24 659.34-17.81L659.34-17.81L659.34-17.81Q659.34-11.39 662.29-7.88L662.29-7.88L662.29-7.88Q665.25-4.38 670.58-4.38L670.58-4.38L670.58-4.38Q673.06-4.38 674.85-5.11L674.85-5.11L674.85-5.11Q676.64-5.84 678.46-7.08L678.46-7.08L678.46-7.08Q679.26-7.59 680.00-7.96L680.00-7.96L680.00-7.96Q680.73-8.32 681.24-8.32L681.24-8.32L681.24-8.32Q682.04-8.32 682.59-7.66L682.59-7.66L682.59-7.66Q683.13-7.01 683.13-5.99L683.13-5.99L683.13-5.99Q683.13-5.04 682.62-4.27L682.62-4.27L682.62-4.27Q682.11-3.50 680.73-2.55L680.73-2.55L680.73-2.55Q678.68-1.17 675.80-0.33L675.80-0.33L675.80-0.33Q672.91 0.51 669.99 0.51L669.99 0.51ZM717.30-36.28L717.30-36.28Q718.68-36.28 719.45-35.48L719.45-35.48L719.45-35.48Q720.22-34.67 720.22-33.36L720.22-33.36L720.22-2.48L720.22-2.48Q720.22-1.24 719.45-0.44L719.45-0.44L719.45-0.44Q718.68 0.36 717.30 0.36L717.30 0.36L717.30 0.36Q715.98 0.36 715.22-0.40L715.22-0.40L715.22-0.40Q714.45-1.17 714.45-2.41L714.45-2.41L714.45-6.06L714.45-6.06Q712.77-2.85 709.74-1.17L709.74-1.17L709.74-1.17Q706.71 0.51 702.92 0.51L702.92 0.51L702.92 0.51Q696.57 0.51 693.35-3.03L693.35-3.03L693.35-3.03Q690.14-6.57 690.14-13.50L690.14-13.50L690.14-33.36L690.14-33.36Q690.14-34.67 690.94-35.48L690.94-35.48L690.94-35.48Q691.75-36.28 693.13-36.28L693.13-36.28L693.13-36.28Q694.52-36.28 695.29-35.48L695.29-35.48L695.29-35.48Q696.05-34.67 696.05-33.36L696.05-33.36L696.05-13.65L696.05-13.65Q696.05-8.91 697.95-6.68L697.95-6.68L697.95-6.68Q699.85-4.45 703.94-4.45L703.94-4.45L703.94-4.45Q708.61-4.45 711.46-7.48L711.46-7.48L711.46-7.48Q714.30-10.51 714.30-15.48L714.30-15.48L714.30-33.36L714.30-33.36Q714.30-34.67 715.11-35.48L715.11-35.48L715.11-35.48Q715.91-36.28 717.30-36.28L717.30-36.28ZM734.23 0.36L734.23 0.36Q732.92 0.36 732.08-0.40L732.08-0.40L732.08-0.40Q731.24-1.17 731.24-2.55L731.24-2.55L731.24-48.91L731.24-48.91Q731.24-50.30 732.08-51.06L732.08-51.06L732.08-51.06Q732.92-51.83 734.23-51.83L734.23-51.83L734.23-51.83Q735.47-51.83 736.31-51.06L736.31-51.06L736.31-51.06Q737.15-50.30 737.15-48.91L737.15-48.91L737.15-2.55L737.15-2.55Q737.15-1.17 736.31-0.40L736.31-0.40L736.31-0.40Q735.47 0.36 734.23 0.36L734.23 0.36ZM764.60-4.31L764.60-4.31Q767.16-4.09 767.16-1.97L767.16-1.97L767.16-1.97Q767.16-0.73 766.24-0.11L766.24-0.11L766.24-0.11Q765.33 0.51 763.51 0.36L763.51 0.36L761.54 0.22L761.54 0.22Q755.70-0.22 752.92-3.28L752.92-3.28L752.92-3.28Q750.15-6.35 750.15-12.56L750.15-12.56L750.15-30.88L745.26-30.88L745.26-30.88Q744.02-30.88 743.32-31.50L743.32-31.50L743.32-31.50Q742.63-32.12 742.63-33.14L742.63-33.14L742.63-33.14Q742.63-34.24 743.32-34.89L743.32-34.89L743.32-34.89Q744.02-35.55 745.26-35.55L745.26-35.55L750.15-35.55L750.15-43.80L750.15-43.80Q750.15-45.19 750.95-45.95L750.95-45.95L750.95-45.95Q751.75-46.72 753.14-46.72L753.14-46.72L753.14-46.72Q754.46-46.72 755.26-45.95L755.26-45.95L755.26-45.95Q756.06-45.19 756.06-43.80L756.06-43.80L756.06-35.55L764.16-35.55L764.16-35.55Q765.33-35.55 766.03-34.89L766.03-34.89L766.03-34.89Q766.72-34.24 766.72-33.14L766.72-33.14L766.72-33.14Q766.72-32.12 766.03-31.50L766.03-31.50L766.03-31.50Q765.33-30.88 764.16-30.88L764.16-30.88L756.06-30.88L756.06-12.26L756.06-12.26Q756.06-8.25 757.70-6.46L757.70-6.46L757.70-6.46Q759.35-4.67 762.63-4.45L762.63-4.45L764.60-4.31ZM800.01-36.28L800.01-36.28Q801.39-36.28 802.16-35.48L802.16-35.48L802.16-35.48Q802.93-34.67 802.93-33.36L802.93-33.36L802.93-2.48L802.93-2.48Q802.93-1.24 802.16-0.44L802.16-0.44L802.16-0.44Q801.39 0.36 800.01 0.36L800.01 0.36L800.01 0.36Q798.69 0.36 797.93-0.40L797.93-0.40L797.93-0.40Q797.16-1.17 797.16-2.41L797.16-2.41L797.16-6.06L797.16-6.06Q795.48-2.85 792.45-1.17L792.45-1.17L792.45-1.17Q789.42 0.51 785.63 0.51L785.63 0.51L785.63 0.51Q779.28 0.51 776.06-3.03L776.06-3.03L776.06-3.03Q772.85-6.57 772.85-13.50L772.85-13.50L772.85-33.36L772.85-33.36Q772.85-34.67 773.65-35.48L773.65-35.48L773.65-35.48Q774.46-36.28 775.84-36.28L775.84-36.28L775.84-36.28Q777.23-36.28 778.00-35.48L778.00-35.48L778.00-35.48Q778.76-34.67 778.76-33.36L778.76-33.36L778.76-13.65L778.76-13.65Q778.76-8.91 780.66-6.68L780.66-6.68L780.66-6.68Q782.56-4.45 786.65-4.45L786.65-4.45L786.65-4.45Q791.32-4.45 794.17-7.48L794.17-7.48L794.17-7.48Q797.01-10.51 797.01-15.48L797.01-15.48L797.01-33.36L797.01-33.36Q797.01-34.67 797.82-35.48L797.82-35.48L797.82-35.48Q798.62-36.28 800.01-36.28L800.01-36.28ZM831.54-36.28L831.54-36.28Q834.61-36.50 834.61-33.80L834.61-33.80L834.61-33.80Q834.61-32.63 833.95-31.94L833.95-31.94L833.95-31.94Q833.30-31.24 831.69-31.10L831.69-31.10L829.50-30.88L829.50-30.88Q824.61-30.44 822.24-27.41L822.24-27.41L822.24-27.41Q819.86-24.38 819.86-20.29L819.86-20.29L819.86-2.55L819.86-2.55Q819.86-1.09 819.06-0.36L819.06-0.36L819.06-0.36Q818.26 0.36 816.94 0.36L816.94 0.36L816.94 0.36Q815.63 0.36 814.79-0.40L814.79-0.40L814.79-0.40Q813.95-1.17 813.95-2.55L813.95-2.55L813.95-33.36L813.95-33.36Q813.95-34.75 814.83-35.51L814.83-35.51L814.83-35.51Q815.70-36.28 816.94-36.28L816.94-36.28L816.94-36.28Q818.11-36.28 818.91-35.51L818.91-35.51L818.91-35.51Q819.72-34.75 819.72-33.43L819.72-33.43L819.72-29.35L819.72-29.35Q821.25-32.56 824.06-34.24L824.06-34.24L824.06-34.24Q826.87-35.92 830.52-36.21L830.52-36.21L831.54-36.28ZM867.24-8.25L867.24-8.25Q868.04-8.25 868.63-7.59L868.63-7.59L868.63-7.59Q869.21-6.93 869.21-5.91L869.21-5.91L869.21-5.91Q869.21-4.09 866.66-2.55L866.66-2.55L866.66-2.55Q864.03-1.02 861.11-0.26L861.11-0.26L861.11-0.26Q858.19 0.51 855.41 0.51L855.41 0.51L855.41 0.51Q847.17 0.51 842.38-4.38L842.38-4.38L842.38-4.38Q837.60-9.27 837.60-17.88L837.60-17.88L837.60-17.88Q837.60-23.36 839.72-27.56L839.72-27.56L839.72-27.56Q841.84-31.75 845.67-34.09L845.67-34.09L845.67-34.09Q849.50-36.43 854.39-36.43L854.39-36.43L854.39-36.43Q861.33-36.43 865.42-31.90L865.42-31.90L865.42-31.90Q869.50-27.38 869.50-19.64L869.50-19.64L869.50-19.64Q869.50-18.18 868.92-17.52L868.92-17.52L868.92-17.52Q868.34-16.86 867.02-16.86L867.02-16.86L843.51-16.86L843.51-16.86Q844.17-4.31 855.41-4.31L855.41-4.31L855.41-4.31Q858.26-4.31 860.31-5.07L860.31-5.07L860.31-5.07Q862.35-5.84 864.69-7.15L864.69-7.15L864.69-7.15Q866.58-8.25 867.24-8.25L867.24-8.25ZM854.47-31.83L854.47-31.83Q849.79-31.83 846.98-28.91L846.98-28.91L846.98-28.91Q844.17-25.99 843.66-20.66L843.66-20.66L864.32-20.66L864.32-20.66Q864.17-26.06 861.62-28.94L861.62-28.94L861.62-28.94Q859.06-31.83 854.47-31.83L854.47-31.83Z" fill="#000000"></path></g></g><style>text {
  font-size: 64px;
  font-family: Arial Black;
  dominant-baseline: central;
  text-anchor: middle;
}</style></svg>